<mxfile host="app.diagrams.net" agent="Mozilla/5.0 (X11; Linux x86_64) AppleWebKit/537.36 (KHTML, like Gecko) Chrome/140.0.0.0 Safari/537.36" version="28.2.3">
  <diagram name="Page-1" id="QFvJYX39MRxPM5kka2j7">
    <mxGraphModel dx="-710" dy="1766" grid="0" gridSize="10" guides="1" tooltips="1" connect="1" arrows="1" fold="1" page="1" pageScale="1" pageWidth="827" pageHeight="1169" background="light-dark(#FFFFFF,#FFFFFF)" math="0" shadow="0">
      <root>
        <mxCell id="0" />
        <mxCell id="1" parent="0" />
        <mxCell id="Vi3HtYatErjw_obsTcz2-4" value="DEPARTMENT VPC" style="points=[[0,0],[0.25,0],[0.5,0],[0.75,0],[1,0],[1,0.25],[1,0.5],[1,0.75],[1,1],[0.75,1],[0.5,1],[0.25,1],[0,1],[0,0.75],[0,0.5],[0,0.25]];outlineConnect=0;gradientColor=none;html=1;whiteSpace=wrap;fontSize=27;fontStyle=0;container=1;pointerEvents=0;collapsible=0;recursiveResize=0;shape=mxgraph.aws4.group;grIcon=mxgraph.aws4.group_vpc2;strokeColor=light-dark(#8C4FFF,#006600);fillColor=none;verticalAlign=top;align=left;spacingLeft=30;fontColor=#AAB7B8;strokeWidth=7;perimeterSpacing=6;" parent="1" vertex="1">
          <mxGeometry x="4389" y="735" width="1672" height="992" as="geometry" />
        </mxCell>
        <mxCell id="Vi3HtYatErjw_obsTcz2-5" value="Availability Zone-a" style="fillColor=none;strokeColor=#147EBA;dashed=1;verticalAlign=top;fontStyle=0;fontColor=#147EBA;whiteSpace=wrap;html=1;strokeWidth=7;rounded=1;glass=0;sketch=1;curveFitting=1;jiggle=2;arcSize=17;fontSize=28;" parent="Vi3HtYatErjw_obsTcz2-4" vertex="1">
          <mxGeometry x="143" y="80" width="1311" height="796" as="geometry" />
        </mxCell>
        <mxCell id="Vi3HtYatErjw_obsTcz2-6" value="Private subnet" style="points=[[0,0],[0.25,0],[0.5,0],[0.75,0],[1,0],[1,0.25],[1,0.5],[1,0.75],[1,1],[0.75,1],[0.5,1],[0.25,1],[0,1],[0,0.75],[0,0.5],[0,0.25]];outlineConnect=0;gradientColor=none;html=1;whiteSpace=wrap;fontSize=20;fontStyle=0;container=1;pointerEvents=0;collapsible=0;recursiveResize=0;shape=mxgraph.aws4.group;grIcon=mxgraph.aws4.group_security_group;grStroke=0;strokeColor=#00A4A6;fillColor=light-dark(#E6F6F7,#99CCFF);verticalAlign=top;align=left;spacingLeft=30;fontColor=light-dark(#147EBA,#000066);dashed=0;" parent="Vi3HtYatErjw_obsTcz2-4" vertex="1">
          <mxGeometry x="289" y="158.5" width="972" height="241.5" as="geometry" />
        </mxCell>
        <mxCell id="Vi3HtYatErjw_obsTcz2-7" value="" style="sketch=0;points=[[0,0,0],[0.25,0,0],[0.5,0,0],[0.75,0,0],[1,0,0],[0,1,0],[0.25,1,0],[0.5,1,0],[0.75,1,0],[1,1,0],[0,0.25,0],[0,0.5,0],[0,0.75,0],[1,0.25,0],[1,0.5,0],[1,0.75,0]];outlineConnect=0;fontColor=#232F3E;fillColor=#ED7100;strokeColor=#ffffff;dashed=0;verticalLabelPosition=bottom;verticalAlign=top;align=center;html=1;fontSize=12;fontStyle=0;aspect=fixed;shape=mxgraph.aws4.resourceIcon;resIcon=mxgraph.aws4.ec2;" parent="Vi3HtYatErjw_obsTcz2-6" vertex="1">
          <mxGeometry x="170" y="37" width="118" height="118" as="geometry" />
        </mxCell>
        <mxCell id="Vi3HtYatErjw_obsTcz2-8" value="&lt;h1&gt;&lt;font style=&quot;color: light-dark(rgb(51, 0, 0), rgb(20, 17, 17));&quot;&gt;&lt;span style=&quot;font-size: 20px;&quot;&gt;EC2&lt;/span&gt;&lt;/font&gt;&lt;/h1&gt;" style="text;strokeColor=none;fillColor=none;html=1;fontSize=24;fontStyle=1;verticalAlign=middle;align=center;" parent="Vi3HtYatErjw_obsTcz2-6" vertex="1">
          <mxGeometry x="110" y="138" width="232" height="53" as="geometry" />
        </mxCell>
        <mxCell id="Vi3HtYatErjw_obsTcz2-9" value="" style="sketch=0;points=[[0,0,0],[0.25,0,0],[0.5,0,0],[0.75,0,0],[1,0,0],[0,1,0],[0.25,1,0],[0.5,1,0],[0.75,1,0],[1,1,0],[0,0.25,0],[0,0.5,0],[0,0.75,0],[1,0.25,0],[1,0.5,0],[1,0.75,0]];outlineConnect=0;fontColor=#232F3E;fillColor=#ED7100;strokeColor=#ffffff;dashed=0;verticalLabelPosition=bottom;verticalAlign=top;align=center;html=1;fontSize=12;fontStyle=0;aspect=fixed;shape=mxgraph.aws4.resourceIcon;resIcon=mxgraph.aws4.ec2;" parent="Vi3HtYatErjw_obsTcz2-4" vertex="1">
          <mxGeometry x="706" y="195" width="118" height="118" as="geometry" />
        </mxCell>
        <mxCell id="Vi3HtYatErjw_obsTcz2-10" value="" style="sketch=0;points=[[0,0,0],[0.25,0,0],[0.5,0,0],[0.75,0,0],[1,0,0],[0,1,0],[0.25,1,0],[0.5,1,0],[0.75,1,0],[1,1,0],[0,0.25,0],[0,0.5,0],[0,0.75,0],[1,0.25,0],[1,0.5,0],[1,0.75,0]];outlineConnect=0;fontColor=#232F3E;fillColor=#ED7100;strokeColor=#ffffff;dashed=0;verticalLabelPosition=bottom;verticalAlign=top;align=center;html=1;fontSize=12;fontStyle=0;aspect=fixed;shape=mxgraph.aws4.resourceIcon;resIcon=mxgraph.aws4.ec2;" parent="Vi3HtYatErjw_obsTcz2-4" vertex="1">
          <mxGeometry x="961" y="195" width="118" height="118" as="geometry" />
        </mxCell>
        <mxCell id="Vi3HtYatErjw_obsTcz2-11" value="&lt;h1&gt;&lt;font style=&quot;color: light-dark(rgb(51, 0, 0), rgb(20, 17, 17));&quot;&gt;&lt;span style=&quot;font-size: 20px;&quot;&gt;EC2&lt;/span&gt;&lt;/font&gt;&lt;/h1&gt;" style="text;strokeColor=none;fillColor=none;html=1;fontSize=24;fontStyle=1;verticalAlign=middle;align=center;" parent="Vi3HtYatErjw_obsTcz2-4" vertex="1">
          <mxGeometry x="904" y="300" width="232" height="53" as="geometry" />
        </mxCell>
        <mxCell id="Vi3HtYatErjw_obsTcz2-29" style="edgeStyle=orthogonalEdgeStyle;rounded=0;orthogonalLoop=1;jettySize=auto;html=1;strokeColor=light-dark(#000000,#1A1A1A);strokeWidth=4;" parent="1" source="Vi3HtYatErjw_obsTcz2-30" target="Vi3HtYatErjw_obsTcz2-28" edge="1">
          <mxGeometry relative="1" as="geometry" />
        </mxCell>
        <mxCell id="Vi3HtYatErjw_obsTcz2-30" value="Internet&#xa;gateway" style="sketch=0;outlineConnect=0;fontColor=light-dark(#232F3E, #021731);gradientColor=none;strokeColor=light-dark(#232F3E,#0000FF);fillColor=none;dashed=0;verticalLabelPosition=bottom;verticalAlign=top;align=center;html=1;fontSize=15;fontStyle=0;aspect=fixed;shape=mxgraph.aws4.resourceIcon;resIcon=mxgraph.aws4.internet_gateway;strokeWidth=10;textShadow=1;" parent="1" vertex="1">
          <mxGeometry x="5094.5" y="1636" width="159" height="159" as="geometry" />
        </mxCell>
        <mxCell id="Vi3HtYatErjw_obsTcz2-31" style="edgeStyle=orthogonalEdgeStyle;rounded=0;orthogonalLoop=1;jettySize=auto;html=1;strokeColor=light-dark(#000000,#000099);strokeWidth=7;" parent="1" source="Vi3HtYatErjw_obsTcz2-32" target="Vi3HtYatErjw_obsTcz2-42" edge="1">
          <mxGeometry relative="1" as="geometry" />
        </mxCell>
        <mxCell id="Vi3HtYatErjw_obsTcz2-32" value="Users" style="sketch=0;outlineConnect=0;fontColor=light-dark(#232F3E,#000000);gradientColor=none;strokeColor=light-dark(#232F3E,#000000);fillColor=none;dashed=0;verticalLabelPosition=bottom;verticalAlign=top;align=center;html=1;fontSize=38;fontStyle=0;aspect=fixed;shape=mxgraph.aws4.resourceIcon;resIcon=mxgraph.aws4.users;strokeWidth=14;" parent="1" vertex="1">
          <mxGeometry x="2573" y="2231" width="250" height="250" as="geometry" />
        </mxCell>
        <mxCell id="Vi3HtYatErjw_obsTcz2-33" style="edgeStyle=orthogonalEdgeStyle;rounded=0;orthogonalLoop=1;jettySize=auto;html=1;strokeColor=light-dark(#000000,#006600);strokeWidth=6;" parent="1" source="Vi3HtYatErjw_obsTcz2-34" target="Vi3HtYatErjw_obsTcz2-30" edge="1">
          <mxGeometry relative="1" as="geometry">
            <Array as="points">
              <mxPoint x="2478" y="1886" />
              <mxPoint x="5174" y="1886" />
            </Array>
          </mxGeometry>
        </mxCell>
        <mxCell id="Vi3HtYatErjw_obsTcz2-34" value="" style="sketch=0;verticalLabelPosition=bottom;sketch=0;aspect=fixed;html=1;verticalAlign=top;strokeColor=none;fillColor=light-dark(#000000,#333333);align=center;outlineConnect=0;pointerEvents=1;shape=mxgraph.citrix2.internal_users;fontColor=light-dark(#000000,#000000);fontSize=21;" parent="1" vertex="1">
          <mxGeometry x="2302" y="900" width="323" height="310.69" as="geometry" />
        </mxCell>
        <mxCell id="Vi3HtYatErjw_obsTcz2-35" value="&lt;h1&gt;&lt;font style=&quot;color: light-dark(rgb(0, 0, 0), rgb(51, 0, 0)); font-size: 32px;&quot;&gt;INERNAL USERS&lt;/font&gt;&lt;/h1&gt;" style="text;strokeColor=none;fillColor=none;html=1;fontSize=24;fontStyle=1;verticalAlign=middle;align=center;" parent="1" vertex="1">
          <mxGeometry x="2284" y="828" width="279" height="119" as="geometry" />
        </mxCell>
        <mxCell id="Vi3HtYatErjw_obsTcz2-37" value="Region" style="points=[[0,0],[0.25,0],[0.5,0],[0.75,0],[1,0],[1,0.25],[1,0.5],[1,0.75],[1,1],[0.75,1],[0.5,1],[0.25,1],[0,1],[0,0.75],[0,0.5],[0,0.25]];outlineConnect=0;gradientColor=none;html=1;whiteSpace=wrap;fontSize=40;fontStyle=0;container=1;pointerEvents=0;collapsible=0;recursiveResize=0;shape=mxgraph.aws4.group;grIcon=mxgraph.aws4.group_region;strokeColor=light-dark(#00A4A6,#003333);fillColor=none;verticalAlign=top;align=left;spacingLeft=30;fontColor=#147EBA;dashed=1;strokeWidth=10;" parent="1" vertex="1">
          <mxGeometry x="3525" y="700" width="4277" height="3732" as="geometry" />
        </mxCell>
        <mxCell id="Vi3HtYatErjw_obsTcz2-38" style="edgeStyle=orthogonalEdgeStyle;rounded=0;orthogonalLoop=1;jettySize=auto;html=1;exitX=0;exitY=1;exitDx=0;exitDy=0;" parent="Vi3HtYatErjw_obsTcz2-37" source="Vi3HtYatErjw_obsTcz2-39" edge="1">
          <mxGeometry relative="1" as="geometry">
            <mxPoint x="1518.666666666667" y="2497.466666666667" as="targetPoint" />
          </mxGeometry>
        </mxCell>
        <mxCell id="Vi3HtYatErjw_obsTcz2-39" value="PRODUCTION VPC" style="points=[[0,0],[0.25,0],[0.5,0],[0.75,0],[1,0],[1,0.25],[1,0.5],[1,0.75],[1,1],[0.75,1],[0.5,1],[0.25,1],[0,1],[0,0.75],[0,0.5],[0,0.25]];outlineConnect=0;gradientColor=none;html=1;whiteSpace=wrap;fontSize=27;fontStyle=0;container=1;pointerEvents=0;collapsible=0;recursiveResize=0;shape=mxgraph.aws4.group;grIcon=mxgraph.aws4.group_vpc2;strokeColor=#8C4FFF;fillColor=none;verticalAlign=top;align=left;spacingLeft=30;fontColor=#AAB7B8;strokeWidth=7;perimeterSpacing=6;" parent="Vi3HtYatErjw_obsTcz2-37" vertex="1">
          <mxGeometry x="941" y="1897.8" width="1619" height="1360" as="geometry" />
        </mxCell>
        <mxCell id="Vi3HtYatErjw_obsTcz2-40" value="Availability Zone-a" style="fillColor=none;strokeColor=#147EBA;dashed=1;verticalAlign=top;fontStyle=0;fontColor=#147EBA;whiteSpace=wrap;html=1;strokeWidth=7;rounded=1;glass=0;sketch=1;curveFitting=1;jiggle=2;arcSize=17;fontSize=28;" parent="Vi3HtYatErjw_obsTcz2-39" vertex="1">
          <mxGeometry x="140" y="172" width="536" height="1143" as="geometry" />
        </mxCell>
        <mxCell id="Vi3HtYatErjw_obsTcz2-41" value="Availability Zone-b" style="fillColor=none;strokeColor=#147EBA;dashed=1;verticalAlign=top;fontStyle=0;fontColor=#147EBA;whiteSpace=wrap;html=1;strokeWidth=7;perimeterSpacing=3;rounded=1;glass=0;shadow=0;sketch=1;curveFitting=1;jiggle=2;fontSize=27;" parent="Vi3HtYatErjw_obsTcz2-39" vertex="1">
          <mxGeometry x="905" y="163" width="533" height="1147" as="geometry" />
        </mxCell>
        <mxCell id="Vi3HtYatErjw_obsTcz2-42" value="Internet&#xa;gateway" style="sketch=0;outlineConnect=0;fontColor=light-dark(#232F3E, #021731);gradientColor=none;strokeColor=light-dark(#232F3E,#0000FF);fillColor=none;dashed=0;verticalLabelPosition=bottom;verticalAlign=top;align=center;html=1;fontSize=15;fontStyle=0;aspect=fixed;shape=mxgraph.aws4.resourceIcon;resIcon=mxgraph.aws4.internet_gateway;strokeWidth=10;textShadow=1;" parent="Vi3HtYatErjw_obsTcz2-39" vertex="1">
          <mxGeometry x="704" y="-76" width="159" height="159" as="geometry" />
        </mxCell>
        <mxCell id="Vi3HtYatErjw_obsTcz2-43" value="" style="shape=ext;double=1;rounded=1;whiteSpace=wrap;html=1;fillColor=none;strokeWidth=2;strokeColor=light-dark(#000000,#990000);dashed=1;" parent="Vi3HtYatErjw_obsTcz2-39" vertex="1">
          <mxGeometry x="76" y="513" width="1465" height="238" as="geometry" />
        </mxCell>
        <mxCell id="Vi3HtYatErjw_obsTcz2-44" value="" style="shape=ext;double=1;rounded=1;whiteSpace=wrap;html=1;fillColor=none;strokeWidth=2;strokeColor=light-dark(#000000,#990000);dashed=1;" parent="Vi3HtYatErjw_obsTcz2-39" vertex="1">
          <mxGeometry x="76" y="793" width="1472" height="228" as="geometry" />
        </mxCell>
        <mxCell id="Vi3HtYatErjw_obsTcz2-45" value="" style="shape=ext;double=1;rounded=1;whiteSpace=wrap;html=1;fillColor=none;strokeWidth=2;strokeColor=light-dark(#000000,#990000);dashed=1;" parent="Vi3HtYatErjw_obsTcz2-39" vertex="1">
          <mxGeometry x="72" y="1056" width="1476" height="235" as="geometry" />
        </mxCell>
        <mxCell id="Vi3HtYatErjw_obsTcz2-46" value="" style="outlineConnect=0;dashed=0;verticalLabelPosition=bottom;verticalAlign=top;align=center;html=1;shape=mxgraph.aws3.auto_scaling;fillColor=#F58534;gradientColor=none;" parent="Vi3HtYatErjw_obsTcz2-39" vertex="1">
          <mxGeometry x="760" y="584" width="79.5" height="76.5" as="geometry" />
        </mxCell>
        <mxCell id="Vi3HtYatErjw_obsTcz2-47" value="Public subnet" style="points=[[0,0],[0.25,0],[0.5,0],[0.75,0],[1,0],[1,0.25],[1,0.5],[1,0.75],[1,1],[0.75,1],[0.5,1],[0.25,1],[0,1],[0,0.75],[0,0.5],[0,0.25]];outlineConnect=0;gradientColor=none;fontSize=24;fontStyle=1;container=1;pointerEvents=0;collapsible=0;recursiveResize=0;shape=mxgraph.aws4.group;grIcon=mxgraph.aws4.group_security_group;grStroke=0;strokeColor=light-dark(#82B366,#006600);fillColor=light-dark(#000000,#CCFF99);verticalAlign=top;align=left;spacingLeft=30;dashed=0;strokeWidth=22;perimeterSpacing=5;labelBackgroundColor=none;textShadow=0;html=1;whiteSpace=wrap;fontFamily=Helvetica;labelBorderColor=none;spacing=-1;fontColor=light-dark(#000000,#009900);" parent="Vi3HtYatErjw_obsTcz2-39" vertex="1">
          <mxGeometry x="191" y="528" width="381" height="209" as="geometry" />
        </mxCell>
        <mxCell id="Vi3HtYatErjw_obsTcz2-48" value="" style="sketch=0;points=[[0,0,0],[0.25,0,0],[0.5,0,0],[0.75,0,0],[1,0,0],[0,1,0],[0.25,1,0],[0.5,1,0],[0.75,1,0],[1,1,0],[0,0.25,0],[0,0.5,0],[0,0.75,0],[1,0.25,0],[1,0.5,0],[1,0.75,0]];outlineConnect=0;fontColor=#232F3E;fillColor=#ED7100;strokeColor=#ffffff;dashed=0;verticalLabelPosition=bottom;verticalAlign=top;align=center;html=1;fontSize=12;fontStyle=0;aspect=fixed;shape=mxgraph.aws4.resourceIcon;resIcon=mxgraph.aws4.ec2;" parent="Vi3HtYatErjw_obsTcz2-39" vertex="1">
          <mxGeometry x="369" y="581" width="129" height="129" as="geometry" />
        </mxCell>
        <mxCell id="Vi3HtYatErjw_obsTcz2-49" value="" style="sketch=0;outlineConnect=0;fontColor=#232F3E;gradientColor=none;fillColor=#8C4FFF;strokeColor=none;dashed=0;verticalLabelPosition=bottom;verticalAlign=top;align=center;html=1;fontSize=12;fontStyle=0;aspect=fixed;pointerEvents=1;shape=mxgraph.aws4.nat_gateway;" parent="Vi3HtYatErjw_obsTcz2-39" vertex="1">
          <mxGeometry x="228" y="632" width="78" height="78" as="geometry" />
        </mxCell>
        <mxCell id="Vi3HtYatErjw_obsTcz2-50" value="Public subnet" style="points=[[0,0],[0.25,0],[0.5,0],[0.75,0],[1,0],[1,0.25],[1,0.5],[1,0.75],[1,1],[0.75,1],[0.5,1],[0.25,1],[0,1],[0,0.75],[0,0.5],[0,0.25]];outlineConnect=0;gradientColor=none;fontSize=24;fontStyle=1;container=1;pointerEvents=0;collapsible=0;recursiveResize=0;shape=mxgraph.aws4.group;grIcon=mxgraph.aws4.group_security_group;grStroke=0;strokeColor=light-dark(#82B366,#006600);fillColor=light-dark(#000000,#CCFF99);verticalAlign=top;align=left;spacingLeft=30;dashed=0;strokeWidth=22;perimeterSpacing=5;labelBackgroundColor=none;textShadow=0;html=1;whiteSpace=wrap;fontFamily=Helvetica;labelBorderColor=none;spacing=-1;fontColor=light-dark(#000000,#009900);" parent="Vi3HtYatErjw_obsTcz2-39" vertex="1">
          <mxGeometry x="960" y="528.5" width="380" height="212.5" as="geometry" />
        </mxCell>
        <mxCell id="Vi3HtYatErjw_obsTcz2-51" value="&lt;h1&gt;&lt;font style=&quot;color: light-dark(rgb(51, 0, 0), rgb(20, 17, 17));&quot;&gt;&lt;span style=&quot;font-size: 20px;&quot;&gt;EC2&lt;/span&gt;&lt;/font&gt;&lt;/h1&gt;" style="text;strokeColor=none;fillColor=none;html=1;fontSize=24;fontStyle=1;verticalAlign=middle;align=center;" parent="Vi3HtYatErjw_obsTcz2-50" vertex="1">
          <mxGeometry x="100" y="159.5" width="232" height="53" as="geometry" />
        </mxCell>
        <mxCell id="Vi3HtYatErjw_obsTcz2-52" value="" style="sketch=0;points=[[0,0,0],[0.25,0,0],[0.5,0,0],[0.75,0,0],[1,0,0],[0,1,0],[0.25,1,0],[0.5,1,0],[0.75,1,0],[1,1,0],[0,0.25,0],[0,0.5,0],[0,0.75,0],[1,0.25,0],[1,0.5,0],[1,0.75,0]];outlineConnect=0;fontColor=#232F3E;fillColor=#ED7100;strokeColor=#ffffff;dashed=0;verticalLabelPosition=bottom;verticalAlign=top;align=center;html=1;fontSize=13;fontStyle=0;aspect=fixed;shape=mxgraph.aws4.resourceIcon;resIcon=mxgraph.aws4.ec2;" parent="Vi3HtYatErjw_obsTcz2-39" vertex="1">
          <mxGeometry x="1119" y="581" width="129" height="129" as="geometry" />
        </mxCell>
        <mxCell id="Vi3HtYatErjw_obsTcz2-53" value="Private subnet" style="points=[[0,0],[0.25,0],[0.5,0],[0.75,0],[1,0],[1,0.25],[1,0.5],[1,0.75],[1,1],[0.75,1],[0.5,1],[0.25,1],[0,1],[0,0.75],[0,0.5],[0,0.25]];outlineConnect=0;gradientColor=none;html=1;whiteSpace=wrap;fontSize=20;fontStyle=0;container=1;pointerEvents=0;collapsible=0;recursiveResize=0;shape=mxgraph.aws4.group;grIcon=mxgraph.aws4.group_security_group;grStroke=0;strokeColor=#00A4A6;fillColor=light-dark(#E6F6F7,#99CCFF);verticalAlign=top;align=left;spacingLeft=30;fontColor=light-dark(#147EBA,#000066);dashed=0;" parent="Vi3HtYatErjw_obsTcz2-39" vertex="1">
          <mxGeometry x="203.5" y="811" width="374" height="200" as="geometry" />
        </mxCell>
        <mxCell id="Vi3HtYatErjw_obsTcz2-54" value="" style="sketch=0;points=[[0,0,0],[0.25,0,0],[0.5,0,0],[0.75,0,0],[1,0,0],[0,1,0],[0.25,1,0],[0.5,1,0],[0.75,1,0],[1,1,0],[0,0.25,0],[0,0.5,0],[0,0.75,0],[1,0.25,0],[1,0.5,0],[1,0.75,0]];outlineConnect=0;fontColor=#232F3E;fillColor=#ED7100;strokeColor=#ffffff;dashed=0;verticalLabelPosition=bottom;verticalAlign=top;align=center;html=1;fontSize=12;fontStyle=0;aspect=fixed;shape=mxgraph.aws4.resourceIcon;resIcon=mxgraph.aws4.ec2;" parent="Vi3HtYatErjw_obsTcz2-53" vertex="1">
          <mxGeometry x="170" y="37" width="118" height="118" as="geometry" />
        </mxCell>
        <mxCell id="Vi3HtYatErjw_obsTcz2-55" value="&lt;h1&gt;&lt;font style=&quot;color: light-dark(rgb(51, 0, 0), rgb(20, 17, 17));&quot;&gt;&lt;span style=&quot;font-size: 20px;&quot;&gt;EC2&lt;/span&gt;&lt;/font&gt;&lt;/h1&gt;" style="text;strokeColor=none;fillColor=none;html=1;fontSize=24;fontStyle=1;verticalAlign=middle;align=center;" parent="Vi3HtYatErjw_obsTcz2-53" vertex="1">
          <mxGeometry x="110" y="138" width="232" height="53" as="geometry" />
        </mxCell>
        <mxCell id="Vi3HtYatErjw_obsTcz2-56" value="Private subnet" style="points=[[0,0],[0.25,0],[0.5,0],[0.75,0],[1,0],[1,0.25],[1,0.5],[1,0.75],[1,1],[0.75,1],[0.5,1],[0.25,1],[0,1],[0,0.75],[0,0.5],[0,0.25]];outlineConnect=0;gradientColor=none;html=1;whiteSpace=wrap;fontSize=20;fontStyle=0;container=1;pointerEvents=0;collapsible=0;recursiveResize=0;shape=mxgraph.aws4.group;grIcon=mxgraph.aws4.group_security_group;grStroke=0;strokeColor=#00A4A6;fillColor=light-dark(#E6F6F7,#99CCFF);verticalAlign=top;align=left;spacingLeft=30;fontColor=light-dark(#147EBA,#000066);dashed=0;" parent="Vi3HtYatErjw_obsTcz2-39" vertex="1">
          <mxGeometry x="203.5" y="1068.5" width="374" height="200" as="geometry" />
        </mxCell>
        <mxCell id="Vi3HtYatErjw_obsTcz2-57" value="" style="sketch=0;points=[[0,0,0],[0.25,0,0],[0.5,0,0],[0.75,0,0],[1,0,0],[0,1,0],[0.25,1,0],[0.5,1,0],[0.75,1,0],[1,1,0],[0,0.25,0],[0,0.5,0],[0,0.75,0],[1,0.25,0],[1,0.5,0],[1,0.75,0]];outlineConnect=0;fontColor=#232F3E;fillColor=#C925D1;strokeColor=#ffffff;dashed=0;verticalLabelPosition=bottom;verticalAlign=top;align=center;html=1;fontSize=12;fontStyle=0;aspect=fixed;shape=mxgraph.aws4.resourceIcon;resIcon=mxgraph.aws4.rds;" parent="Vi3HtYatErjw_obsTcz2-56" vertex="1">
          <mxGeometry x="180.5" y="48" width="111" height="111" as="geometry" />
        </mxCell>
        <mxCell id="Vi3HtYatErjw_obsTcz2-58" value="&lt;h1&gt;&lt;font style=&quot;color: light-dark(rgb(51, 0, 0), rgb(20, 17, 17));&quot;&gt;&lt;span style=&quot;font-size: 20px;&quot;&gt;RDS&lt;/span&gt;&lt;/font&gt;&lt;/h1&gt;" style="text;strokeColor=none;fillColor=none;html=1;fontSize=24;fontStyle=1;verticalAlign=middle;align=center;" parent="Vi3HtYatErjw_obsTcz2-56" vertex="1">
          <mxGeometry x="117" y="138" width="232" height="53" as="geometry" />
        </mxCell>
        <mxCell id="Vi3HtYatErjw_obsTcz2-59" value="Private subnet" style="points=[[0,0],[0.25,0],[0.5,0],[0.75,0],[1,0],[1,0.25],[1,0.5],[1,0.75],[1,1],[0.75,1],[0.5,1],[0.25,1],[0,1],[0,0.75],[0,0.5],[0,0.25]];outlineConnect=0;gradientColor=none;html=1;whiteSpace=wrap;fontSize=20;fontStyle=0;container=1;pointerEvents=0;collapsible=0;recursiveResize=0;shape=mxgraph.aws4.group;grIcon=mxgraph.aws4.group_security_group;grStroke=0;strokeColor=#00A4A6;fillColor=light-dark(#E6F6F7,#99CCFF);verticalAlign=top;align=left;spacingLeft=30;fontColor=light-dark(#147EBA,#000066);dashed=0;" parent="Vi3HtYatErjw_obsTcz2-39" vertex="1">
          <mxGeometry x="959" y="802" width="374" height="200" as="geometry" />
        </mxCell>
        <mxCell id="Vi3HtYatErjw_obsTcz2-60" value="" style="sketch=0;points=[[0,0,0],[0.25,0,0],[0.5,0,0],[0.75,0,0],[1,0,0],[0,1,0],[0.25,1,0],[0.5,1,0],[0.75,1,0],[1,1,0],[0,0.25,0],[0,0.5,0],[0,0.75,0],[1,0.25,0],[1,0.5,0],[1,0.75,0]];outlineConnect=0;fontColor=#232F3E;fillColor=#ED7100;strokeColor=#ffffff;dashed=0;verticalLabelPosition=bottom;verticalAlign=top;align=center;html=1;fontSize=12;fontStyle=0;aspect=fixed;shape=mxgraph.aws4.resourceIcon;resIcon=mxgraph.aws4.ec2;" parent="Vi3HtYatErjw_obsTcz2-59" vertex="1">
          <mxGeometry x="170" y="37" width="118" height="118" as="geometry" />
        </mxCell>
        <mxCell id="Vi3HtYatErjw_obsTcz2-61" value="&lt;h1&gt;&lt;font style=&quot;color: light-dark(rgb(51, 0, 0), rgb(20, 17, 17));&quot;&gt;&lt;span style=&quot;font-size: 20px;&quot;&gt;EC2&lt;/span&gt;&lt;/font&gt;&lt;/h1&gt;" style="text;strokeColor=none;fillColor=none;html=1;fontSize=24;fontStyle=1;verticalAlign=middle;align=center;" parent="Vi3HtYatErjw_obsTcz2-59" vertex="1">
          <mxGeometry x="113" y="136" width="232" height="53" as="geometry" />
        </mxCell>
        <mxCell id="Vi3HtYatErjw_obsTcz2-62" value="Private subnet" style="points=[[0,0],[0.25,0],[0.5,0],[0.75,0],[1,0],[1,0.25],[1,0.5],[1,0.75],[1,1],[0.75,1],[0.5,1],[0.25,1],[0,1],[0,0.75],[0,0.5],[0,0.25]];outlineConnect=0;gradientColor=none;html=1;whiteSpace=wrap;fontSize=20;fontStyle=0;container=1;pointerEvents=0;collapsible=0;recursiveResize=0;shape=mxgraph.aws4.group;grIcon=mxgraph.aws4.group_security_group;grStroke=0;strokeColor=#00A4A6;fillColor=light-dark(#E6F6F7,#99CCFF);verticalAlign=top;align=left;spacingLeft=30;fontColor=light-dark(#147EBA,#000066);dashed=0;" parent="Vi3HtYatErjw_obsTcz2-39" vertex="1">
          <mxGeometry x="959" y="1066" width="374" height="200" as="geometry" />
        </mxCell>
        <mxCell id="Vi3HtYatErjw_obsTcz2-63" value="" style="sketch=0;points=[[0,0,0],[0.25,0,0],[0.5,0,0],[0.75,0,0],[1,0,0],[0,1,0],[0.25,1,0],[0.5,1,0],[0.75,1,0],[1,1,0],[0,0.25,0],[0,0.5,0],[0,0.75,0],[1,0.25,0],[1,0.5,0],[1,0.75,0]];outlineConnect=0;fontColor=#232F3E;fillColor=#C925D1;strokeColor=#ffffff;dashed=0;verticalLabelPosition=bottom;verticalAlign=top;align=center;html=1;fontSize=12;fontStyle=0;aspect=fixed;shape=mxgraph.aws4.resourceIcon;resIcon=mxgraph.aws4.rds;" parent="Vi3HtYatErjw_obsTcz2-62" vertex="1">
          <mxGeometry x="200" y="49.5" width="111" height="111" as="geometry" />
        </mxCell>
        <mxCell id="Vi3HtYatErjw_obsTcz2-64" value="" style="outlineConnect=0;dashed=0;verticalLabelPosition=bottom;verticalAlign=top;align=center;html=1;shape=mxgraph.aws3.auto_scaling;fillColor=#F58534;gradientColor=none;" parent="Vi3HtYatErjw_obsTcz2-39" vertex="1">
          <mxGeometry x="757" y="835" width="79.5" height="76.5" as="geometry" />
        </mxCell>
        <mxCell id="Vi3HtYatErjw_obsTcz2-65" value="" style="sketch=0;outlineConnect=0;fontColor=#232F3E;gradientColor=none;fillColor=#8C4FFF;strokeColor=none;dashed=0;verticalLabelPosition=bottom;verticalAlign=top;align=center;html=1;fontSize=12;fontStyle=0;aspect=fixed;pointerEvents=1;shape=mxgraph.aws4.application_load_balancer;strokeWidth=27;perimeterSpacing=29;" parent="Vi3HtYatErjw_obsTcz2-39" vertex="1">
          <mxGeometry x="757" y="752.5" width="78" height="78" as="geometry" />
        </mxCell>
        <mxCell id="Vi3HtYatErjw_obsTcz2-66" value="" style="edgeStyle=orthogonalEdgeStyle;rounded=0;orthogonalLoop=1;jettySize=auto;html=1;" parent="Vi3HtYatErjw_obsTcz2-39" source="Vi3HtYatErjw_obsTcz2-68" edge="1">
          <mxGeometry relative="1" as="geometry">
            <mxPoint x="915" y="763.5714285714289" as="targetPoint" />
          </mxGeometry>
        </mxCell>
        <mxCell id="Vi3HtYatErjw_obsTcz2-67" value="" style="edgeStyle=orthogonalEdgeStyle;rounded=0;orthogonalLoop=1;jettySize=auto;html=1;" parent="Vi3HtYatErjw_obsTcz2-39" source="Vi3HtYatErjw_obsTcz2-68" edge="1">
          <mxGeometry relative="1" as="geometry">
            <mxPoint x="799.0000000000005" y="737.5008863434914" as="targetPoint" />
          </mxGeometry>
        </mxCell>
        <mxCell id="Vi3HtYatErjw_obsTcz2-68" value="&lt;h1&gt;&lt;font style=&quot;color: light-dark(rgb(0, 0, 0), rgb(51, 0, 0)); font-size: 41px;&quot;&gt;WEB TIER&lt;/font&gt;&lt;/h1&gt;" style="text;strokeColor=none;fillColor=none;html=1;fontSize=24;fontStyle=1;verticalAlign=middle;align=center;" parent="Vi3HtYatErjw_obsTcz2-39" vertex="1">
          <mxGeometry x="746.75" y="670" width="100" height="40" as="geometry" />
        </mxCell>
        <mxCell id="Vi3HtYatErjw_obsTcz2-69" value="&lt;h1&gt;&lt;font style=&quot;font-size: 41px; color: light-dark(rgb(0, 0, 0), rgb(102, 0, 102));&quot;&gt;DB TIER&lt;/font&gt;&lt;/h1&gt;" style="text;strokeColor=none;fillColor=none;html=1;fontSize=24;fontStyle=1;verticalAlign=middle;align=center;" parent="Vi3HtYatErjw_obsTcz2-39" vertex="1">
          <mxGeometry x="743" y="1183" width="100" height="40" as="geometry" />
        </mxCell>
        <mxCell id="Vi3HtYatErjw_obsTcz2-70" value="&lt;h1&gt;&lt;font style=&quot;color: light-dark(rgb(51, 0, 0), rgb(153, 76, 0));&quot;&gt;&lt;span style=&quot;font-size: 41px;&quot;&gt;APP TIER&lt;/span&gt;&lt;/font&gt;&lt;/h1&gt;" style="text;strokeColor=none;fillColor=none;html=1;fontSize=24;fontStyle=1;verticalAlign=middle;align=center;" parent="Vi3HtYatErjw_obsTcz2-39" vertex="1">
          <mxGeometry x="748" y="956" width="100" height="40" as="geometry" />
        </mxCell>
        <mxCell id="Vi3HtYatErjw_obsTcz2-71" value="&lt;h1&gt;&lt;font style=&quot;color: light-dark(rgb(0, 0, 0), rgb(51, 0, 0)); font-size: 20px;&quot;&gt;Auto Scaling&lt;/font&gt;&lt;/h1&gt;" style="text;strokeColor=none;fillColor=none;html=1;fontSize=24;fontStyle=1;verticalAlign=middle;align=center;" parent="Vi3HtYatErjw_obsTcz2-39" vertex="1">
          <mxGeometry x="682" y="893" width="232" height="53" as="geometry" />
        </mxCell>
        <mxCell id="Vi3HtYatErjw_obsTcz2-72" value="&lt;h1&gt;&lt;font style=&quot;color: light-dark(rgb(51, 0, 0), rgb(20, 17, 17));&quot;&gt;&lt;span style=&quot;font-size: 20px;&quot;&gt;EC2&lt;/span&gt;&lt;/font&gt;&lt;/h1&gt;" style="text;strokeColor=none;fillColor=none;html=1;fontSize=24;fontStyle=1;verticalAlign=middle;align=center;" parent="Vi3HtYatErjw_obsTcz2-39" vertex="1">
          <mxGeometry x="322" y="688" width="232" height="53" as="geometry" />
        </mxCell>
        <mxCell id="Vi3HtYatErjw_obsTcz2-73" value="&lt;h1&gt;&lt;font style=&quot;color: light-dark(rgb(51, 0, 0), rgb(20, 17, 17));&quot;&gt;&lt;span style=&quot;font-size: 20px;&quot;&gt;NAT Getway&lt;/span&gt;&lt;/font&gt;&lt;/h1&gt;" style="text;strokeColor=none;fillColor=none;html=1;fontSize=24;fontStyle=1;verticalAlign=middle;align=center;" parent="Vi3HtYatErjw_obsTcz2-39" vertex="1">
          <mxGeometry x="170" y="688" width="232" height="53" as="geometry" />
        </mxCell>
        <mxCell id="Vi3HtYatErjw_obsTcz2-74" value="&lt;h1&gt;&lt;font style=&quot;color: light-dark(rgb(51, 0, 0), rgb(20, 17, 17));&quot;&gt;&lt;span style=&quot;font-size: 20px;&quot;&gt;RDS Replica&lt;/span&gt;&lt;/font&gt;&lt;/h1&gt;" style="text;strokeColor=none;fillColor=none;html=1;fontSize=24;fontStyle=1;verticalAlign=middle;align=center;" parent="Vi3HtYatErjw_obsTcz2-39" vertex="1">
          <mxGeometry x="1101" y="1211" width="232" height="53" as="geometry" />
        </mxCell>
        <mxCell id="Vi3HtYatErjw_obsTcz2-75" value="&lt;h1&gt;&lt;font style=&quot;color: light-dark(rgb(0, 0, 0), rgb(51, 0, 0)); font-size: 20px;&quot;&gt;ALB&lt;/font&gt;&lt;/h1&gt;" style="text;strokeColor=none;fillColor=none;html=1;fontSize=24;fontStyle=1;verticalAlign=middle;align=center;" parent="Vi3HtYatErjw_obsTcz2-39" vertex="1">
          <mxGeometry x="684.5" y="536" width="229" height="57" as="geometry" />
        </mxCell>
        <mxCell id="Vi3HtYatErjw_obsTcz2-76" value="" style="sketch=0;outlineConnect=0;fontColor=#232F3E;gradientColor=none;fillColor=#8C4FFF;strokeColor=none;dashed=0;verticalLabelPosition=bottom;verticalAlign=top;align=center;html=1;fontSize=12;fontStyle=0;aspect=fixed;pointerEvents=1;shape=mxgraph.aws4.application_load_balancer;strokeWidth=50;perimeterSpacing=20;" parent="Vi3HtYatErjw_obsTcz2-39" vertex="1">
          <mxGeometry x="751" y="464" width="84" height="84" as="geometry" />
        </mxCell>
        <mxCell id="Vi3HtYatErjw_obsTcz2-77" value="" style="shape=ext;double=1;rounded=1;whiteSpace=wrap;html=1;fillColor=none;strokeWidth=2;strokeColor=light-dark(#000000,#990000);dashed=1;" parent="Vi3HtYatErjw_obsTcz2-39" vertex="1">
          <mxGeometry x="76" y="246" width="1459.5" height="238" as="geometry" />
        </mxCell>
        <mxCell id="Vi3HtYatErjw_obsTcz2-78" value="Public subnet" style="points=[[0,0],[0.25,0],[0.5,0],[0.75,0],[1,0],[1,0.25],[1,0.5],[1,0.75],[1,1],[0.75,1],[0.5,1],[0.25,1],[0,1],[0,0.75],[0,0.5],[0,0.25]];outlineConnect=0;gradientColor=none;fontSize=24;fontStyle=1;container=1;pointerEvents=0;collapsible=0;recursiveResize=0;shape=mxgraph.aws4.group;grIcon=mxgraph.aws4.group_security_group;grStroke=0;strokeColor=light-dark(#82B366,#006600);fillColor=light-dark(#000000,#CCFF99);verticalAlign=top;align=left;spacingLeft=30;dashed=0;strokeWidth=22;perimeterSpacing=5;labelBackgroundColor=none;textShadow=0;html=1;whiteSpace=wrap;fontFamily=Helvetica;labelBorderColor=none;spacing=-1;fontColor=light-dark(#000000,#009900);" parent="Vi3HtYatErjw_obsTcz2-39" vertex="1">
          <mxGeometry x="197.5" y="260" width="380" height="210" as="geometry" />
        </mxCell>
        <mxCell id="Vi3HtYatErjw_obsTcz2-79" value="GWLB Endpoints 1" style="sketch=0;outlineConnect=0;fontColor=light-dark(#232F3E,#330066);gradientColor=none;strokeColor=light-dark(#232F3E,#4C0099);fillColor=none;dashed=0;verticalLabelPosition=bottom;verticalAlign=top;align=center;html=1;fontSize=15;fontStyle=0;aspect=fixed;shape=mxgraph.aws4.resourceIcon;resIcon=mxgraph.aws4.endpoints;strokeWidth=100;perimeterSpacing=100;" parent="Vi3HtYatErjw_obsTcz2-78" vertex="1">
          <mxGeometry x="159.5" y="41.5" width="127" height="127" as="geometry" />
        </mxCell>
        <mxCell id="Vi3HtYatErjw_obsTcz2-80" value="Public subnet" style="points=[[0,0],[0.25,0],[0.5,0],[0.75,0],[1,0],[1,0.25],[1,0.5],[1,0.75],[1,1],[0.75,1],[0.5,1],[0.25,1],[0,1],[0,0.75],[0,0.5],[0,0.25]];outlineConnect=0;gradientColor=none;fontSize=24;fontStyle=1;container=1;pointerEvents=0;collapsible=0;recursiveResize=0;shape=mxgraph.aws4.group;grIcon=mxgraph.aws4.group_security_group;grStroke=0;strokeColor=light-dark(#82B366,#006600);fillColor=light-dark(#000000,#CCFF99);verticalAlign=top;align=left;spacingLeft=30;dashed=0;strokeWidth=22;perimeterSpacing=5;labelBackgroundColor=none;textShadow=0;html=1;whiteSpace=wrap;fontFamily=Helvetica;labelBorderColor=none;spacing=-1;fontColor=light-dark(#000000,#009900);" parent="Vi3HtYatErjw_obsTcz2-39" vertex="1">
          <mxGeometry x="959" y="261.5" width="380" height="212.5" as="geometry" />
        </mxCell>
        <mxCell id="Vi3HtYatErjw_obsTcz2-81" value="GWLB Endpoints 2" style="sketch=0;outlineConnect=0;fontColor=light-dark(#232F3E,#330066);gradientColor=none;strokeColor=light-dark(#232F3E,#4C0099);fillColor=none;dashed=0;verticalLabelPosition=bottom;verticalAlign=top;align=center;html=1;fontSize=15;fontStyle=0;aspect=fixed;shape=mxgraph.aws4.resourceIcon;resIcon=mxgraph.aws4.endpoints;strokeWidth=100;perimeterSpacing=100;" parent="Vi3HtYatErjw_obsTcz2-80" vertex="1">
          <mxGeometry x="142" y="42.75" width="127" height="127" as="geometry" />
        </mxCell>
        <mxCell id="Vi3HtYatErjw_obsTcz2-82" value="&lt;font style=&quot;font-size: 31px; color: light-dark(rgb(0, 0, 0), rgb(76, 0, 153));&quot;&gt;GETWAY TIER&lt;/font&gt;" style="text;strokeColor=none;fillColor=none;html=1;fontSize=24;fontStyle=1;verticalAlign=middle;align=center;" parent="Vi3HtYatErjw_obsTcz2-39" vertex="1">
          <mxGeometry x="737.5" y="372" width="121" height="71" as="geometry" />
        </mxCell>
        <mxCell id="Vi3HtYatErjw_obsTcz2-83" value="" style="sketch=0;outlineConnect=0;fontColor=#232F3E;gradientColor=none;fillColor=#8C4FFF;strokeColor=none;dashed=0;verticalLabelPosition=bottom;verticalAlign=top;align=center;html=1;fontSize=12;fontStyle=0;aspect=fixed;pointerEvents=1;shape=mxgraph.aws4.flow_logs;" parent="Vi3HtYatErjw_obsTcz2-39" vertex="1">
          <mxGeometry x="-62" y="64" width="132.25" height="132.25" as="geometry" />
        </mxCell>
        <mxCell id="Vi3HtYatErjw_obsTcz2-84" value="&lt;h1&gt;&lt;font style=&quot;color: light-dark(rgb(0, 0, 0), rgb(51, 0, 0)); font-size: 24px;&quot;&gt;vpc flow logs&lt;/font&gt;&lt;/h1&gt;" style="text;strokeColor=none;fillColor=none;html=1;fontSize=24;fontStyle=1;verticalAlign=middle;align=center;" parent="Vi3HtYatErjw_obsTcz2-39" vertex="1">
          <mxGeometry x="-45.87" y="185" width="100" height="40" as="geometry" />
        </mxCell>
        <mxCell id="Vi3HtYatErjw_obsTcz2-85" style="edgeStyle=orthogonalEdgeStyle;rounded=0;orthogonalLoop=1;jettySize=auto;html=1;strokeColor=light-dark(#000000,#663300);strokeWidth=4;" parent="Vi3HtYatErjw_obsTcz2-37" source="Vi3HtYatErjw_obsTcz2-90" target="Vi3HtYatErjw_obsTcz2-87" edge="1">
          <mxGeometry relative="1" as="geometry" />
        </mxCell>
        <mxCell id="Vi3HtYatErjw_obsTcz2-86" value="" style="sketch=0;outlineConnect=0;fontColor=#232F3E;gradientColor=none;fillColor=#7AA116;strokeColor=none;dashed=0;verticalLabelPosition=bottom;verticalAlign=top;align=center;html=1;fontSize=12;fontStyle=0;aspect=fixed;pointerEvents=1;shape=mxgraph.aws4.bucket_with_objects;strokeWidth=13;perimeterSpacing=8;" parent="Vi3HtYatErjw_obsTcz2-37" vertex="1">
          <mxGeometry x="232" y="2218" width="170.5" height="177.32" as="geometry" />
        </mxCell>
        <mxCell id="Vi3HtYatErjw_obsTcz2-87" value="" style="sketch=0;outlineConnect=0;fontColor=#232F3E;gradientColor=none;fillColor=#ED7100;strokeColor=none;dashed=0;verticalLabelPosition=bottom;verticalAlign=top;align=center;html=1;fontSize=12;fontStyle=0;aspect=fixed;pointerEvents=1;shape=mxgraph.aws4.lambda_function;" parent="Vi3HtYatErjw_obsTcz2-37" vertex="1">
          <mxGeometry x="240.5" y="2784" width="153.5" height="153.5" as="geometry" />
        </mxCell>
        <mxCell id="Vi3HtYatErjw_obsTcz2-88" value="&lt;h1&gt;&lt;font style=&quot;color: light-dark(rgb(0, 0, 0), rgb(51, 0, 0)); font-size: 27px;&quot;&gt;LAMBDA&lt;/font&gt;&lt;/h1&gt;" style="text;strokeColor=none;fillColor=none;html=1;fontSize=24;fontStyle=1;verticalAlign=middle;align=center;" parent="Vi3HtYatErjw_obsTcz2-37" vertex="1">
          <mxGeometry x="191" y="2937.5" width="232" height="53" as="geometry" />
        </mxCell>
        <mxCell id="Vi3HtYatErjw_obsTcz2-89" value="" style="edgeStyle=orthogonalEdgeStyle;rounded=0;orthogonalLoop=1;jettySize=auto;html=1;strokeColor=light-dark(#000000,#663300);strokeWidth=4;" parent="Vi3HtYatErjw_obsTcz2-37" source="Vi3HtYatErjw_obsTcz2-86" target="Vi3HtYatErjw_obsTcz2-90" edge="1">
          <mxGeometry relative="1" as="geometry">
            <mxPoint x="2808" y="2317.8" as="sourcePoint" />
            <mxPoint x="2808" y="2545.8" as="targetPoint" />
          </mxGeometry>
        </mxCell>
        <mxCell id="Vi3HtYatErjw_obsTcz2-90" value="&lt;h1&gt;&lt;font style=&quot;color: light-dark(rgb(51, 0, 0), rgb(102, 51, 0)); font-size: 30px;&quot;&gt;Object created Event&lt;/font&gt;&lt;/h1&gt;" style="text;strokeColor=none;fillColor=none;html=1;fontSize=24;fontStyle=1;verticalAlign=middle;align=center;" parent="Vi3HtYatErjw_obsTcz2-37" vertex="1">
          <mxGeometry x="202" y="2524" width="232" height="53" as="geometry" />
        </mxCell>
        <mxCell id="Vi3HtYatErjw_obsTcz2-91" value="&lt;h1&gt;&lt;font style=&quot;color: light-dark(rgb(51, 0, 0), rgb(102, 51, 0)); font-size: 25px;&quot;&gt;Parsing + Formatting&lt;/font&gt;&lt;/h1&gt;" style="text;strokeColor=none;fillColor=none;html=1;fontSize=24;fontStyle=1;verticalAlign=middle;align=center;" parent="Vi3HtYatErjw_obsTcz2-37" vertex="1">
          <mxGeometry x="191" y="2987.5" width="232" height="53" as="geometry" />
        </mxCell>
        <mxCell id="Vi3HtYatErjw_obsTcz2-92" style="edgeStyle=orthogonalEdgeStyle;rounded=0;orthogonalLoop=1;jettySize=auto;html=1;strokeColor=light-dark(#000000,#330066);strokeWidth=4;" parent="Vi3HtYatErjw_obsTcz2-37" source="Vi3HtYatErjw_obsTcz2-83" target="Vi3HtYatErjw_obsTcz2-86" edge="1">
          <mxGeometry relative="1" as="geometry" />
        </mxCell>
        <mxCell id="Vi3HtYatErjw_obsTcz2-93" style="edgeStyle=orthogonalEdgeStyle;rounded=0;orthogonalLoop=1;jettySize=auto;html=1;strokeColor=light-dark(#000000,#006633);strokeWidth=4;" parent="Vi3HtYatErjw_obsTcz2-37" source="Vi3HtYatErjw_obsTcz2-76" target="Vi3HtYatErjw_obsTcz2-86" edge="1">
          <mxGeometry relative="1" as="geometry">
            <Array as="points">
              <mxPoint x="889" y="2400.8" />
              <mxPoint x="889" y="2244.8" />
            </Array>
          </mxGeometry>
        </mxCell>
        <mxCell id="Vi3HtYatErjw_obsTcz2-94" value="&lt;h1&gt;&lt;font style=&quot;color: light-dark(rgb(0, 0, 0), rgb(0, 102, 0)); font-size: 22px;&quot;&gt;write access logs&lt;/font&gt;&lt;/h1&gt;" style="text;strokeColor=none;fillColor=none;html=1;fontSize=24;fontStyle=1;verticalAlign=middle;align=center;" parent="Vi3HtYatErjw_obsTcz2-37" vertex="1">
          <mxGeometry x="610" y="2202" width="117" height="16" as="geometry" />
        </mxCell>
        <mxCell id="Vi3HtYatErjw_obsTcz2-95" value="&lt;h1&gt;&lt;font style=&quot;color: light-dark(rgb(0, 0, 0), rgb(76, 0, 153)); font-size: 22px;&quot;&gt;write traffic logs&lt;/font&gt;&lt;/h1&gt;" style="text;strokeColor=none;fillColor=none;html=1;fontSize=24;fontStyle=1;verticalAlign=middle;align=center;" parent="Vi3HtYatErjw_obsTcz2-37" vertex="1">
          <mxGeometry x="567" y="1988" width="117" height="16" as="geometry" />
        </mxCell>
        <mxCell id="Vi3HtYatErjw_obsTcz2-96" value="On-Premise" style="sketch=0;outlineConnect=0;gradientColor=none;html=1;whiteSpace=wrap;fontSize=33;fontStyle=0;shape=mxgraph.aws4.group;grIcon=mxgraph.aws4.group_on_premise;strokeColor=#858B94;fillColor=none;verticalAlign=top;align=left;spacingLeft=30;fontColor=#858B94;dashed=0;strokeWidth=12;" parent="1" vertex="1">
          <mxGeometry x="2223" y="735" width="461" height="599" as="geometry" />
        </mxCell>
        <mxCell id="Vi3HtYatErjw_obsTcz2-97" value="" style="verticalLabelPosition=bottom;sketch=0;html=1;fillColor=light-dark(#FFFFFF,#990099);strokeColor=none;verticalAlign=top;align=center;points=[[0,0.5,0],[0.125,0.25,0],[0.25,0,0],[0.5,0,0],[0.75,0,0],[0.875,0.25,0],[1,0.5,0],[0.875,0.75,0],[0.75,1,0],[0.5,1,0],[0.125,0.75,0]];pointerEvents=1;shape=mxgraph.cisco_safe.compositeIcon;bgIcon=mxgraph.cisco_safe.design.blank_device;resIcon=mxgraph.cisco_safe.design.siem_2;" parent="1" vertex="1">
          <mxGeometry x="1942" y="3656" width="380.25" height="308" as="geometry" />
        </mxCell>
        <mxCell id="Vi3HtYatErjw_obsTcz2-98" value="&lt;h1&gt;&lt;font style=&quot;color: light-dark(rgb(51, 0, 0), rgb(102, 51, 0)); font-size: 35px;&quot;&gt;HTTP/Syslog&lt;/font&gt;&lt;/h1&gt;" style="text;strokeColor=none;fillColor=none;html=1;fontSize=24;fontStyle=1;verticalAlign=middle;align=center;" parent="1" vertex="1">
          <mxGeometry x="2015" y="3946" width="226" height="109" as="geometry" />
        </mxCell>
        <mxCell id="Vi3HtYatErjw_obsTcz2-99" value="&lt;h1&gt;&lt;font style=&quot;color: light-dark(rgb(0, 0, 0), rgb(51, 0, 0)); font-size: 32px;&quot;&gt;External&lt;/font&gt;&lt;/h1&gt;" style="text;strokeColor=none;fillColor=none;html=1;fontSize=24;fontStyle=1;verticalAlign=middle;align=center;" parent="1" vertex="1">
          <mxGeometry x="2462" y="3501" width="232" height="53" as="geometry" />
        </mxCell>
        <mxCell id="Vi3HtYatErjw_obsTcz2-100" style="edgeStyle=orthogonalEdgeStyle;rounded=0;orthogonalLoop=1;jettySize=auto;html=1;entryX=0.5;entryY=0;entryDx=0;entryDy=0;entryPerimeter=0;strokeColor=light-dark(#000000,#330033);strokeWidth=4;" parent="1" source="Vi3HtYatErjw_obsTcz2-87" target="Vi3HtYatErjw_obsTcz2-97" edge="1">
          <mxGeometry relative="1" as="geometry">
            <mxPoint x="3968" y="3564" as="sourcePoint" />
            <Array as="points">
              <mxPoint x="2132" y="3564" />
            </Array>
          </mxGeometry>
        </mxCell>
        <mxCell id="Vi3HtYatErjw_obsTcz2-24" style="edgeStyle=orthogonalEdgeStyle;rounded=0;orthogonalLoop=1;jettySize=auto;html=1;entryX=0.5;entryY=1;entryDx=0;entryDy=0;strokeColor=light-dark(#000000,#1A1A1A);strokeWidth=4;" parent="1" source="Vi3HtYatErjw_obsTcz2-25" target="Vi3HtYatErjw_obsTcz2-8" edge="1">
          <mxGeometry relative="1" as="geometry" />
        </mxCell>
        <mxCell id="Vi3HtYatErjw_obsTcz2-27" style="edgeStyle=orthogonalEdgeStyle;rounded=0;orthogonalLoop=1;jettySize=auto;html=1;entryX=0.5;entryY=1;entryDx=0;entryDy=0;strokeColor=light-dark(#000000,#1A1A1A);strokeWidth=4;" parent="1" source="Vi3HtYatErjw_obsTcz2-25" target="Vi3HtYatErjw_obsTcz2-11" edge="1">
          <mxGeometry relative="1" as="geometry" />
        </mxCell>
        <mxCell id="Vi3HtYatErjw_obsTcz2-12" value="AWS Cloud" style="points=[[0,0],[0.25,0],[0.5,0],[0.75,0],[1,0],[1,0.25],[1,0.5],[1,0.75],[1,1],[0.75,1],[0.5,1],[0.25,1],[0,1],[0,0.75],[0,0.5],[0,0.25]];outlineConnect=0;gradientColor=none;html=1;whiteSpace=wrap;fontSize=46;fontStyle=0;container=1;pointerEvents=0;collapsible=0;recursiveResize=0;shape=mxgraph.aws4.group;grIcon=mxgraph.aws4.group_aws_cloud_alt;strokeColor=light-dark(#232F3E,#000000);fillColor=none;verticalAlign=top;align=left;spacingLeft=30;fontColor=light-dark(#232F3E,#1A1A1A);dashed=0;strokeWidth=6;" parent="1" vertex="1">
          <mxGeometry x="3154" y="647" width="4825" height="3898" as="geometry" />
        </mxCell>
        <mxCell id="Vi3HtYatErjw_obsTcz2-13" value="Inspection VPC" style="points=[[0,0],[0.25,0],[0.5,0],[0.75,0],[1,0],[1,0.25],[1,0.5],[1,0.75],[1,1],[0.75,1],[0.5,1],[0.25,1],[0,1],[0,0.75],[0,0.5],[0,0.25]];outlineConnect=0;gradientColor=none;html=1;whiteSpace=wrap;fontSize=27;fontStyle=0;container=1;pointerEvents=0;collapsible=0;recursiveResize=0;shape=mxgraph.aws4.group;grIcon=mxgraph.aws4.group_vpc2;strokeColor=light-dark(#8C4FFF,#990000);fillColor=none;verticalAlign=top;align=left;spacingLeft=30;fontColor=#AAB7B8;strokeWidth=7;perimeterSpacing=6;" parent="Vi3HtYatErjw_obsTcz2-12" vertex="1">
          <mxGeometry x="3064" y="1084" width="1265" height="865" as="geometry" />
        </mxCell>
        <mxCell id="Vi3HtYatErjw_obsTcz2-14" value="" style="edgeStyle=orthogonalEdgeStyle;rounded=0;orthogonalLoop=1;jettySize=auto;html=1;" parent="Vi3HtYatErjw_obsTcz2-13" edge="1">
          <mxGeometry relative="1" as="geometry">
            <mxPoint x="718" y="-5" as="sourcePoint" />
            <mxPoint x="676" y="111" as="targetPoint" />
          </mxGeometry>
        </mxCell>
        <mxCell id="Vi3HtYatErjw_obsTcz2-15" value="Private subnet" style="points=[[0,0],[0.25,0],[0.5,0],[0.75,0],[1,0],[1,0.25],[1,0.5],[1,0.75],[1,1],[0.75,1],[0.5,1],[0.25,1],[0,1],[0,0.75],[0,0.5],[0,0.25]];outlineConnect=0;gradientColor=none;html=1;whiteSpace=wrap;fontSize=20;fontStyle=0;container=1;pointerEvents=0;collapsible=0;recursiveResize=0;shape=mxgraph.aws4.group;grIcon=mxgraph.aws4.group_security_group;grStroke=0;strokeColor=#00A4A6;fillColor=light-dark(#E6F6F7,#FFCCCC);verticalAlign=top;align=left;spacingLeft=30;fontColor=light-dark(#147EBA,#000066);dashed=0;" parent="Vi3HtYatErjw_obsTcz2-13" vertex="1">
          <mxGeometry x="453" y="261.5" width="646" height="377.5" as="geometry" />
        </mxCell>
        <mxCell id="Vi3HtYatErjw_obsTcz2-16" value="" style="sketch=0;outlineConnect=0;fontColor=#232F3E;gradientColor=none;fillColor=light-dark(#DD344C,#CC0000);strokeColor=none;dashed=0;verticalLabelPosition=bottom;verticalAlign=top;align=center;html=1;fontSize=12;fontStyle=0;aspect=fixed;pointerEvents=1;shape=mxgraph.aws4.network_firewall_endpoints;" parent="Vi3HtYatErjw_obsTcz2-15" vertex="1">
          <mxGeometry x="172" y="59.5" width="186.5" height="186.5" as="geometry" />
        </mxCell>
        <mxCell id="Vi3HtYatErjw_obsTcz2-17" value="&lt;h1&gt;&lt;font style=&quot;color: light-dark(rgb(51, 0, 0), rgb(20, 17, 17));&quot;&gt;&lt;span style=&quot;font-size: 20px;&quot;&gt;FIREWALL ENDPOINT&lt;/span&gt;&lt;/font&gt;&lt;/h1&gt;" style="text;strokeColor=none;fillColor=none;html=1;fontSize=24;fontStyle=1;verticalAlign=middle;align=center;" parent="Vi3HtYatErjw_obsTcz2-15" vertex="1">
          <mxGeometry x="137" y="218.5" width="266" height="87.5" as="geometry" />
        </mxCell>
        <mxCell id="Vi3HtYatErjw_obsTcz2-18" value="" style="sketch=0;outlineConnect=0;fontColor=#232F3E;gradientColor=none;fillColor=#8C4FFF;strokeColor=none;dashed=0;verticalLabelPosition=bottom;verticalAlign=top;align=center;html=1;fontSize=12;fontStyle=0;aspect=fixed;pointerEvents=1;shape=mxgraph.aws4.gateway_load_balancer;" parent="Vi3HtYatErjw_obsTcz2-13" vertex="1">
          <mxGeometry x="158" y="320" width="199" height="199" as="geometry" />
        </mxCell>
        <mxCell id="Vi3HtYatErjw_obsTcz2-19" value="&lt;h1&gt;&lt;font style=&quot;color: light-dark(rgb(51, 0, 0), rgb(20, 17, 17));&quot;&gt;&lt;span style=&quot;font-size: 20px;&quot;&gt;GWLB&lt;/span&gt;&lt;/font&gt;&lt;/h1&gt;" style="text;strokeColor=none;fillColor=none;html=1;fontSize=24;fontStyle=1;verticalAlign=middle;align=center;" parent="Vi3HtYatErjw_obsTcz2-13" vertex="1">
          <mxGeometry x="85" y="522" width="232" height="53" as="geometry" />
        </mxCell>
        <mxCell id="Vi3HtYatErjw_obsTcz2-20" style="edgeStyle=orthogonalEdgeStyle;rounded=0;orthogonalLoop=1;jettySize=auto;html=1;strokeColor=light-dark(#000000,#330000);strokeWidth=5;" parent="Vi3HtYatErjw_obsTcz2-13" source="Vi3HtYatErjw_obsTcz2-18" edge="1">
          <mxGeometry relative="1" as="geometry">
            <mxPoint x="613" y="404" as="targetPoint" />
            <Array as="points">
              <mxPoint x="324" y="404" />
              <mxPoint x="324" y="404" />
            </Array>
          </mxGeometry>
        </mxCell>
        <mxCell id="Vi3HtYatErjw_obsTcz2-21" value="Availability Zone-a" style="fillColor=none;strokeColor=light-dark(#147EBA,#990000);dashed=1;verticalAlign=top;fontStyle=0;fontColor=#147EBA;whiteSpace=wrap;html=1;strokeWidth=7;perimeterSpacing=3;rounded=1;glass=0;shadow=0;sketch=1;curveFitting=1;jiggle=2;fontSize=27;" parent="Vi3HtYatErjw_obsTcz2-13" vertex="1">
          <mxGeometry x="98" y="201" width="1069" height="472" as="geometry" />
        </mxCell>
        <mxCell id="Vi3HtYatErjw_obsTcz2-22" value="&lt;h1&gt;&lt;font style=&quot;color: light-dark(rgb(51, 0, 0), rgb(20, 17, 17));&quot;&gt;&lt;span style=&quot;font-size: 20px;&quot;&gt;EC2&lt;/span&gt;&lt;/font&gt;&lt;/h1&gt;" style="text;strokeColor=none;fillColor=none;html=1;fontSize=24;fontStyle=1;verticalAlign=middle;align=center;" parent="Vi3HtYatErjw_obsTcz2-12" vertex="1">
          <mxGeometry x="1869" y="398.5" width="232" height="53" as="geometry" />
        </mxCell>
        <mxCell id="Vi3HtYatErjw_obsTcz2-23" value="Public subnet" style="points=[[0,0],[0.25,0],[0.5,0],[0.75,0],[1,0],[1,0.25],[1,0.5],[1,0.75],[1,1],[0.75,1],[0.5,1],[0.25,1],[0,1],[0,0.75],[0,0.5],[0,0.25]];outlineConnect=0;gradientColor=none;fontSize=24;fontStyle=1;container=1;pointerEvents=0;collapsible=0;recursiveResize=0;shape=mxgraph.aws4.group;grIcon=mxgraph.aws4.group_security_group;grStroke=0;strokeColor=light-dark(#82B366,#006600);fillColor=light-dark(#000000,#CCFF99);verticalAlign=top;align=left;spacingLeft=30;dashed=0;strokeWidth=22;perimeterSpacing=5;labelBackgroundColor=none;textShadow=0;html=1;whiteSpace=wrap;fontFamily=Helvetica;labelBorderColor=none;spacing=-1;fontColor=light-dark(#000000,#009900);" parent="Vi3HtYatErjw_obsTcz2-12" vertex="1">
          <mxGeometry x="1791" y="630" width="338.5" height="230" as="geometry" />
        </mxCell>
        <mxCell id="Vi3HtYatErjw_obsTcz2-25" value="" style="sketch=0;points=[[0,0,0],[0.25,0,0],[0.5,0,0],[0.75,0,0],[1,0,0],[0,1,0],[0.25,1,0],[0.5,1,0],[0.75,1,0],[1,1,0],[0,0.25,0],[0,0.5,0],[0,0.75,0],[1,0.25,0],[1,0.5,0],[1,0.75,0]];outlineConnect=0;fontColor=#232F3E;fillColor=#ED7100;strokeColor=#ffffff;dashed=0;verticalLabelPosition=bottom;verticalAlign=top;align=center;html=1;fontSize=13;fontStyle=0;aspect=fixed;shape=mxgraph.aws4.resourceIcon;resIcon=mxgraph.aws4.ec2;" parent="Vi3HtYatErjw_obsTcz2-23" vertex="1">
          <mxGeometry x="158" y="43" width="129" height="129" as="geometry" />
        </mxCell>
        <mxCell id="Vi3HtYatErjw_obsTcz2-28" value="&lt;h1&gt;&lt;font style=&quot;color: light-dark(rgb(51, 0, 0), rgb(20, 17, 17));&quot;&gt;&lt;span style=&quot;font-size: 20px;&quot;&gt;EC2&lt;/span&gt;&lt;/font&gt;&lt;/h1&gt;" style="text;strokeColor=none;fillColor=none;html=1;fontSize=24;fontStyle=1;verticalAlign=middle;align=center;" parent="Vi3HtYatErjw_obsTcz2-23" vertex="1">
          <mxGeometry x="106.5" y="172" width="232" height="58" as="geometry" />
        </mxCell>
        <mxCell id="Vi3HtYatErjw_obsTcz2-26" style="edgeStyle=orthogonalEdgeStyle;rounded=0;orthogonalLoop=1;jettySize=auto;html=1;entryX=0.63;entryY=1.009;entryDx=0;entryDy=0;entryPerimeter=0;strokeColor=light-dark(#000000,#1A1A1A);strokeWidth=4;" parent="Vi3HtYatErjw_obsTcz2-12" source="Vi3HtYatErjw_obsTcz2-25" target="Vi3HtYatErjw_obsTcz2-22" edge="1">
          <mxGeometry relative="1" as="geometry" />
        </mxCell>
        <mxCell id="Vi3HtYatErjw_obsTcz2-3" style="edgeStyle=orthogonalEdgeStyle;rounded=0;orthogonalLoop=1;jettySize=auto;html=1;strokeColor=light-dark(#000000,#660033);strokeWidth=5;exitX=0.75;exitY=1;exitDx=0;exitDy=0;" parent="1" source="Vi3HtYatErjw_obsTcz2-17" target="Vi3HtYatErjw_obsTcz2-86" edge="1">
          <mxGeometry relative="1" as="geometry">
            <Array as="points">
              <mxPoint x="7027" y="4015" />
              <mxPoint x="4333" y="4015" />
              <mxPoint x="4333" y="3007" />
            </Array>
            <mxPoint x="6905" y="3673" as="sourcePoint" />
            <mxPoint x="4067" y="3011" as="targetPoint" />
          </mxGeometry>
        </mxCell>
        <mxCell id="Vi3HtYatErjw_obsTcz2-2" style="edgeStyle=orthogonalEdgeStyle;rounded=0;orthogonalLoop=1;jettySize=auto;html=1;fontColor=light-dark(#000000,#4C0099);fontSize=16;strokeColor=light-dark(#000000,#4C0099);strokeWidth=5;" parent="1" source="Vi3HtYatErjw_obsTcz2-18" target="Vi3HtYatErjw_obsTcz2-39" edge="1">
          <mxGeometry relative="1" as="geometry">
            <mxPoint x="6079" y="3039" as="targetPoint" />
            <Array as="points">
              <mxPoint x="6237" y="3550" />
              <mxPoint x="6237" y="3550" />
            </Array>
          </mxGeometry>
        </mxCell>
      </root>
    </mxGraphModel>
  </diagram>
</mxfile>
